HIERARCHY
ROOT Hips
{
	OFFSET	0.00	0.00	0.00
	CHANNELS 6 Xposition Yposition Zposition Zrotation Xrotation Yrotation
	JOINT LeftUpLeg
	{
		OFFSET	 0.126116	-0.014019	-0.065224
		CHANNELS 3 Zrotation Xrotation Yrotation
		JOINT LeftLeg
		{
			OFFSET	 0.000000	 0.000000	 0.569914
			CHANNELS 3 Zrotation Xrotation Yrotation
			JOINT LeftFoot
			{
				OFFSET	 0.000000	 0.000000	 0.544423
				CHANNELS 3 Zrotation Xrotation Yrotation
				JOINT LeftToeBase
				{
					OFFSET	 0.000000	 0.000000	 0.207117
					CHANNELS 3 Zrotation Xrotation Yrotation
					End Site
					{
						OFFSET	 0.000000	 0.000000	 0.207117
					}
				}
			}
		}
	}
	JOINT RightUpLeg
	{
		OFFSET	-0.124023	-0.008373	-0.065224
		CHANNELS 3 Zrotation Xrotation Yrotation
		JOINT RightLeg
		{
			OFFSET	 0.000000	 0.000000	 0.570047
			CHANNELS 3 Zrotation Xrotation Yrotation
			JOINT RightFoot
			{
				OFFSET	 0.000000	 0.000000	 0.544354
				CHANNELS 3 Zrotation Xrotation Yrotation
				JOINT RightToeBase
				{
					OFFSET	 0.000000	 0.000000	 0.207540
					CHANNELS 3 Zrotation Xrotation Yrotation
					End Site
					{
						OFFSET	 0.000000	 0.000000	 0.207540
					}
				}
			}
		}
	}
	JOINT Spine
	{
		OFFSET	 0.000184	-0.007763	 0.117403
		CHANNELS 3 Zrotation Xrotation Yrotation
		JOINT Spine1
		{
			OFFSET	 0.000000	 0.000000	 0.137269
			CHANNELS 3 Zrotation Xrotation Yrotation
			JOINT Spine2
			{
				OFFSET	 0.000000	 0.000000	 0.156879
				CHANNELS 3 Zrotation Xrotation Yrotation
				JOINT LeftShoulder
				{
					OFFSET	 0.080501	-0.002496	 0.160144
					CHANNELS 3 Zrotation Xrotation Yrotation
					JOINT LeftArm
					{
						OFFSET	 0.000000	 0.000000	 0.164363
						CHANNELS 3 Zrotation Xrotation Yrotation
						JOINT LeftForeArm
						{
							OFFSET	 0.000000	 0.000000	 0.364576
							CHANNELS 3 Zrotation Xrotation Yrotation
							JOINT LeftHand
							{
								OFFSET	 0.000000	 0.000000	 0.360812
								CHANNELS 3 Zrotation Xrotation Yrotation
								JOINT LeftHandIndex1
								{
									OFFSET	 0.000000	 0.000000	 0.086006
									CHANNELS 3 Zrotation Xrotation Yrotation
									JOINT LeftHandIndex2
									{
										OFFSET	 0.000000	 0.000000	 0.047237
										CHANNELS 3 Zrotation Xrotation Yrotation
										JOINT LeftHandIndex3
										{
											OFFSET	-0.004284	-0.000551	 0.038165
											CHANNELS 3 Zrotation Xrotation Yrotation
											End Site
											{
												OFFSET	-0.004284	-0.000551	 0.038165
											}
										}
									}
								}
							}
						}
					}
				}
				JOINT Neck
				{
					OFFSET	 0.000000	 0.000000	 0.176489
					CHANNELS 3 Zrotation Xrotation Yrotation
					JOINT Head
					{
						OFFSET	 0.000000	-0.001747	 0.077940
						CHANNELS 3 Zrotation Xrotation Yrotation
						End Site
						{
							OFFSET	 0.000000	-0.001747	 0.077940
						}
					}
				}
				JOINT RightShoulder
				{
					OFFSET	-0.080363	 0.000306	 0.159706
					CHANNELS 3 Zrotation Xrotation Yrotation
					JOINT RightArm
					{
						OFFSET	 0.000000	 0.000000	 0.164196
						CHANNELS 3 Zrotation Xrotation Yrotation
						JOINT RightForeArm
						{
							OFFSET	 0.000000	 0.000000	 0.365611
							CHANNELS 3 Zrotation Xrotation Yrotation
							JOINT RightHand
							{
								OFFSET	 0.000000	 0.000000	 0.360648
								CHANNELS 3 Zrotation Xrotation Yrotation
								JOINT RightHandIndex1
								{
									OFFSET	 0.000000	 0.000000	 0.069977
									CHANNELS 3 Zrotation Xrotation Yrotation
									JOINT RightHandIndex2
									{
										OFFSET	 0.000000	 0.000000	 0.052305
										CHANNELS 3 Zrotation Xrotation Yrotation
										JOINT RightHandIndex3
										{
											OFFSET	 0.009002	-0.000782	 0.042196
											CHANNELS 3 Zrotation Xrotation Yrotation
											End Site
											{
												OFFSET	 0.009002	-0.000782	 0.042196
											}
										}
									}
								}
							}
						}
					}
				}
			}
		}
	}
}
MOTION
Frames:    9
Frame Time: 0.03333334
-0.444959	-0.033181	 1.272395	-179.984200	 0.205402	-0.165441	-10.512250	-1.292548	 179.463200	 8.299517	-10.702190	 1.445494	-38.365350	 69.964110	 15.425000	-2.385833	 28.452760	 0.000004	 12.022450	-2.510876	-179.395500	-7.519347	-12.595220	-1.987445	 40.355590	 70.832020	-17.097390	 2.384659	 28.388700	-0.000001	-1.661181	 5.816017	 0.034546	-0.347889	-9.098207	 2.377918	 2.613491	 12.572780	-3.300781	-91.776190	 78.527380	-180.000000	-8.228752	-10.797750	-10.232460	 8.776854	-0.093597	-0.492083	-5.018618	-4.201576	-4.992469	-4.130319	 21.525730	 0.991547	-5.167930	 0.731704	 3.519349	-1.378229	 35.397820	-2.634230	-0.000002	-3.783157	-0.089647	-10.550500	-8.651711	-0.800332	 89.782100	 78.203830	 180.000000	 6.349686	-13.303980	 9.940725	-12.715090	-0.057581	 0.492848	 7.887264	-0.222305	 21.353600	 5.716227	 19.173190	-3.685159	 5.027444	 0.246877	-9.377972	-2.350882	 35.473990	 5.254307
-0.446514	-0.033135	 1.271792	-179.820000	-3.442659	 0.548302	 13.547060	 1.249512	 176.318300	-4.124832	-11.693960	-0.951872	-12.687400	 70.879610	 0.778745	-2.385833	 28.452760	 0.000004	 15.389290	 2.056087	 178.667300	 0.498628	-10.703270	-0.190202	 19.901930	 69.071660	-3.671158	 2.384659	 28.388700	-0.000001	-0.598663	 9.533693	-1.700708	 0.440495	-2.674749	 2.014444	 0.134679	 1.505628	-0.672193	-91.776210	 78.527420	-180.000000	-28.146040	-6.761298	-13.363520	 2.762115	-0.041220	-0.496289	-0.612495	-12.639080	-2.256506	-4.130319	 21.525730	 0.991547	-5.167930	 0.731704	 3.519349	-1.378229	 35.397820	-2.634230	-2.018776	-0.538849	 1.062042	-12.896360	-22.262700	-9.978039	 89.782100	 78.203850	 180.000000	 14.077900	-9.796112	 11.379640	-16.335040	-0.088868	 0.489841	-16.535560	 40.180290	 104.340100	 5.716227	 19.173190	-3.685159	 5.027444	 0.246877	-9.377972	-2.350882	 35.473990	 5.254307
-0.446807	-0.033098	 1.271796	-179.748700	-4.367577	 0.822820	 19.513180	 1.544413	 175.022200	-6.896209	-11.852560	-1.540084	-2.874945	 71.055600	-6.991910	-2.385833	 28.452760	 0.000004	 16.127300	 3.323344	 178.029800	 2.106764	-9.852497	 0.099952	 11.717500	 68.243660	 3.542049	 2.384659	 28.388700	-0.000001	-0.225992	 10.403000	-2.255683	 0.607749	-0.908056	 1.873851	-0.479771	-1.425942	-0.118097	-91.776120	 78.527420	 179.999900	-41.887520	-3.235829	-14.568060	 1.847232	-0.033235	-0.496464	-0.020268	-13.915860	-1.679781	-4.130319	 21.525730	 0.991547	-5.167930	 0.731704	 3.519349	-1.378229	 35.397820	-2.634230	-2.596855	 0.357958	 1.454047	-14.036650	-25.858160	-12.898520	 89.782090	 78.203830	-180.000000	 23.320550	-7.369082	 12.644690	-17.710500	-0.100596	 0.487010	-28.898990	 46.436740	 129.040800	 5.716227	 19.173190	-3.685159	 5.027444	 0.246877	-9.377972	-2.350882	 35.473990	 5.254307
-0.446849	-0.033073	 1.271791	-179.651800	-4.518660	 1.067576	 20.844130	 1.251895	 174.551000	-7.570039	-12.288990	-1.741903	-1.784584	 71.097050	-7.473812	-2.385833	 28.452760	 0.000004	 15.999670	 3.722785	 177.747500	 2.482436	-9.230594	 0.153979	 9.432749	 67.636120	 5.639683	 2.384659	 28.388700	-0.000001	-0.168973	 10.541330	-2.441352	 0.660836	-0.564173	 1.502824	-0.642952	-2.037226	 0.203014	-91.776110	 78.527380	 180.000000	-45.163450	-2.318033	-14.699900	 1.517061	-0.030453	-0.497122	-0.158652	-13.470860	-1.824499	-4.130319	 21.525730	 0.991547	-5.167930	 0.731704	 3.519349	-1.378229	 35.397820	-2.634230	-2.760343	 0.611772	 1.648752	-14.448410	-26.713130	-13.816710	 89.782100	 78.203830	-180.000000	 25.662740	-6.736051	 12.908350	-17.932560	-0.103029	 0.489195	-32.998960	 46.678710	 136.197200	 5.716227	 19.173190	-3.685159	 5.027444	 0.246877	-9.377972	-2.350882	 35.473990	 5.254307
-0.446887	-0.033047	 1.271794	-179.545100	-4.676263	 1.343337	 22.261850	 0.909917	 174.035100	-8.302299	-12.752620	-1.971578	-0.490769	 71.133420	-8.120896	-2.385833	 28.452760	 0.000004	 15.864600	 4.173949	 177.433900	 2.885731	-8.504766	 0.201630	 6.999100	 66.927410	 7.885150	 2.384659	 28.388700	-0.000001	-0.106626	 10.679110	-2.660280	 0.719852	-0.187075	 1.107790	-0.813885	-2.698758	 0.547805	-91.776180	 78.527420	-180.000000	-49.189750	-1.183294	-14.791790	 1.159275	-0.027300	-0.496676	-0.384888	-12.976650	-1.962964	-4.130319	 21.525730	 0.991547	-5.167930	 0.731704	 3.519349	-1.378229	 35.397820	-2.634230	-2.939275	 0.886874	 1.862371	-14.916250	-27.633310	-14.834910	 89.782090	 78.203870	 180.000000	 28.481580	-5.964376	 13.197420	-18.175390	-0.104519	 0.486567	-37.621830	 46.813510	 143.899600	 5.716227	 19.173190	-3.685159	 5.027444	 0.246877	-9.377972	-2.350882	 35.473990	 5.254307
-0.446919	-0.033021	 1.271795	-179.445700	-4.818812	 1.595572	 23.529590	 0.589435	 173.568200	-8.971148	-13.156030	-2.188832	 0.793524	 71.154210	-8.827862	-2.385833	 28.452760	 0.000004	 15.741370	 4.557447	 177.150300	 3.250490	-7.901825	 0.237607	 4.840983	 66.289910	 9.882936	 2.384659	 28.388700	-0.000001	-0.050625	 10.802990	-2.859992	 0.773467	 0.153397	 0.746697	-0.964349	-3.298604	 0.859362	-91.776210	 78.527380	-180.000000	-53.380060	-0.000120	-14.802470	 0.833004	-0.024523	-0.497873	-0.660835	-12.519530	-2.070316	-4.130319	 21.525730	 0.991547	-5.167930	 0.731704	 3.519349	-1.378229	 35.397820	-2.634230	-3.103925	 1.137490	 2.059312	-15.362550	-28.465530	-15.784190	 89.782100	 78.203870	 180.000000	 31.339830	-5.170126	 13.454580	-18.398190	-0.106546	 0.486723	-42.018220	 46.839850	 150.842800	 5.716227	 19.173190	-3.685159	 5.027444	 0.246877	-9.377972	-2.350882	 35.473990	 5.254307
-0.446962	-0.032988	 1.271766	-179.212100	-4.802270	 1.710135	 23.304720	 0.405315	 173.489200	-9.186081	-13.406560	-2.280902	 0.722912	 71.353460	-8.545964	-2.385833	 28.452760	 0.000004	 15.298030	 4.483196	 177.106400	 3.458794	-8.058450	 0.271517	 3.861883	 66.291690	 10.749890	 2.384659	 28.388700	-0.000001	-0.261874	 10.784040	-2.909124	 0.785509	 0.145015	 0.527869	-0.987933	-3.295126	 1.049078	-91.776150	 78.527360	 180.000000	-54.435170	 0.361868	-14.791870	 0.791417	-0.024314	-0.500717	-0.700632	-12.455160	-2.111235	-4.130319	 21.525730	 0.991547	-5.167930	 0.731704	 3.519349	-1.378229	 35.397820	-2.634230	-3.162471	 1.209473	 2.240410	-15.527510	-28.623870	-16.444910	 89.782240	 78.203900	 179.999900	 32.111590	-4.814977	 13.553320	-18.286380	-0.106113	 0.489119	-43.264410	 47.276600	 152.054400	 5.716227	 19.173190	-3.685159	 5.027444	 0.246877	-9.377972	-2.350882	 35.473990	 5.254307
-0.447117	-0.032966	 1.271590	-178.610500	-4.636757	 1.641309	 21.323190	 0.407110	 173.870400	-9.142271	-13.522260	-2.289664	-0.625114	 71.672930	-7.155247	-2.385833	 28.452760	 0.000004	 14.103290	 3.673213	 177.450100	 3.656932	-9.694715	 0.359572	 3.480844	 67.254550	 10.973320	 2.384659	 28.388700	-0.000001	-0.993398	 10.720530	-2.705807	 0.747307	-0.351324	 0.325700	-0.928745	-2.615799	 1.233927	-91.776120	 78.527380	 180.000000	-52.696940	 0.201492	-14.876720	 0.979040	-0.026260	-0.505942	-0.522032	-12.653570	-2.106764	-4.130319	 21.525730	 0.991547	-5.167930	 0.731704	 3.519349	-1.378229	 35.397820	-2.634230	-3.097634	 0.930284	 2.175916	-15.360500	-27.988840	-16.417350	 89.782080	 78.203920	-180.000000	 31.520460	-4.328784	 13.760710	-17.188630	-0.098360	 0.499591	-43.267720	 49.844710	 148.158800	 5.716227	 19.173190	-3.685159	 5.027444	 0.246877	-9.377972	-2.350882	 35.473990	 5.254307
-0.447449	-0.033090	 1.270991	-177.511900	-4.686300	 1.457521	 18.514680	-0.355115	 174.393800	-9.383115	-15.897300	-2.749533	-2.979603	 73.351460	-4.541014	-2.385833	 28.452760	 0.000004	 11.995090	 2.387320	 178.155300	 4.096695	-13.034170	 0.580902	 2.269277	 68.863040	 11.892930	 2.384659	 28.388700	-0.000001	-2.213483	 10.731280	-2.538139	 0.661348	-0.340061	 0.417027	-1.086656	-2.237587	 1.311939	-91.776110	 78.527420	 179.999900	-51.849380	 1.659142	 0.490826	 0.530916	-1.571414	-31.955970	-0.526820	-12.515150	-2.116544	-4.130319	 21.525730	 0.991547	-5.167930	 0.731704	 3.519349	-1.378229	 35.397820	-2.634230	-2.990733	-0.180320	 0.646678	-14.815340	-26.564660	-12.953770	 89.782210	 78.203920	 179.999900	 32.520080	-3.734203	-0.345886	-14.987050	-5.358941	 30.712340	-24.993500	 63.195820	 123.198800	 5.716227	 19.173190	-3.685159	 5.027444	 0.246877	-9.377972	-2.350882	 35.473990	 5.254307
